<?xml version="1.0" encoding="utf-8"?>
<!-- Generator: Adobe Illustrator 27.5.0, SVG Export Plug-In . SVG Version: 6.00 Build 0)  -->
<svg version="1.1" id="Layer_1" xmlns="http://www.w3.org/2000/svg" xmlns:xlink="http://www.w3.org/1999/xlink" x="0px" y="0px"
	 viewBox="0 0 4000 4000" style="enable-background:new 0 0 4000 4000;" xml:space="preserve">
<g>
	<g>
		<rect style="fill:#CCEEFF;" width="4000" height="4000"/>
	</g>
	<g>
		<g style="opacity:0.2;">
			<ellipse style="fill:#000072;" cx="2022.473" cy="3416.476" rx="1115.154" ry="138.525"/>
		</g>
		<g>
			<g>
				<g>
					<g>
						
							<ellipse transform="matrix(0.2298 -0.9732 0.9732 0.2298 -883.7208 2990.074)" style="fill:#F06565;" cx="1447.2" cy="2053.352" rx="58.183" ry="58.183"/>
					</g>
					<g>
						<path style="fill:#000072;" d="M1447.199,2132.635c-43.716,0-79.282-35.566-79.282-79.285
							c0-43.716,35.566-79.282,79.282-79.282c43.718,0,79.285,35.566,79.285,79.282
							C1526.484,2097.069,1490.918,2132.635,1447.199,2132.635z M1447.199,2016.271c-20.447,0-37.08,16.633-37.08,37.08
							s16.633,37.083,37.08,37.083s37.083-16.636,37.083-37.083S1467.646,2016.271,1447.199,2016.271z"/>
					</g>
				</g>
				<g>
					<path style="fill:#FF2929;" d="M3100.797,2611.563c4.225-47.716-31.284-92.493-75.314-111.349
						c-44.03-18.862-94.366-16.301-141.334-6.87c-46.962,9.437-92.56,25.366-139.928,32.51
						c-149.089,22.47-300.351-45.813-412.25-146.864c-111.906-101.057-191.27-232.284-255.98-364.984
						c143.74-84.589,341.479-64.261,464.993,47.806c64.159,58.206,110.559,138.504,187.949,177.424
						c50.624,25.462,108.83,30.069,163.409,45.298c71.131,19.849,138.348,59.852,181.038,120.11
						C3116.067,2464.903,3131.123,2546.631,3100.797,2611.563z"/>
				</g>
				<g style="opacity:0.4;">
					<path style="fill:#000072;" d="M3100.797,2611.563c4.225-47.716-31.284-92.493-75.314-111.349
						c-44.03-18.862-94.366-16.301-141.334-6.87c-46.962,9.437-92.56,25.366-139.928,32.51
						c-149.089,22.47-300.351-45.813-412.25-146.864c-111.906-101.057-191.27-232.284-255.98-364.984
						c143.74-84.589,341.479-64.261,464.993,47.806c64.159,58.206,110.559,138.504,187.949,177.424
						c50.624,25.462,108.83,30.069,163.409,45.298c71.131,19.849,138.348,59.852,181.038,120.11
						C3116.067,2464.903,3131.123,2546.631,3100.797,2611.563z"/>
				</g>
				<g>
					<path style="fill:#000072;" d="M3100.801,2632.667c-1.819,0-3.66-0.234-5.483-0.725c-9.89-2.661-16.443-12.039-15.54-22.239
						c3.545-40.029-28.809-75.623-62.6-90.093c-33.65-14.412-75.803-16.238-128.875-5.579c-19.368,3.892-39.124,9.087-58.228,14.114
						c-26.729,7.029-54.37,14.299-82.708,18.574c-142.224,21.436-298.787-33.989-429.541-152.068
						c-97.151-87.732-180.024-205.745-260.806-371.396c-4.827-9.9-1.228-21.848,8.264-27.434
						c152.673-89.836,358.691-68.66,489.875,50.364c23.716,21.516,45.012,45.84,65.608,69.36
						c36.748,41.973,71.458,81.614,117.642,104.839c31.125,15.654,65.718,22.881,102.341,30.53
						c18.792,3.926,38.22,7.983,57.261,13.296c81.77,22.817,150.164,68.359,192.585,128.237
						c49.727,70.195,61.233,159.709,29.316,228.047C3116.379,2628.06,3108.83,2632.667,3100.801,2632.667z M2950.447,2465.016
						c31.145,0,58.728,5.256,83.345,15.801c25.251,10.813,46.44,27.659,61.743,47.781c-1.626-37.915-15.063-77.437-39.375-111.755
						c-36.833-51.992-97.026-91.763-169.49-111.982c-17.693-4.937-36.428-8.85-54.546-12.634
						c-37.668-7.869-76.619-16.003-112.673-34.138c-53.547-26.926-92.634-71.567-130.432-114.741
						c-19.81-22.625-40.293-46.018-62.214-65.906c-111.13-100.825-289.519-122.898-422.959-54.666
						c75.498,151.196,152.766,259.734,242.268,340.554c121.328,109.568,265.298,161.184,394.963,141.663
						c26.089-3.938,51.433-10.603,78.264-17.661c19.695-5.178,40.061-10.537,60.649-14.673
						C2905.332,2467.567,2928.755,2465.016,2950.447,2465.016z"/>
				</g>
				<g>
					<path style="fill:#97D457;" d="M1677.731,2875.256c-19.867,141.46-43.323,290.879-74.5,438.682
						c-8.617,40.631-19.448,84.134-50.863,111.241c-21.123,18.251-48.051,26.15-76.175,29.082
						c-17.114,1.855-34.707,1.855-51.701,1.256c-54.813-1.975-109.506-8.138-163.421-18.311h-0.12
						c-22.2-4.189-44.221-9.096-66.122-14.661c-22.44-5.685-46.794-13.643-58.762-33.45c-15.139-25.133-3.89-57.206,7.839-84.015
						c4.907-11.13,9.814-22.26,14.78-33.33c1.675-3.71,3.351-7.42,5.026-11.13c55.411-122.611,116.627-242.529,183.527-359.215
						c36.263-63.43,74.201-125.962,113.755-187.417c5.565,21.961,28.543,37.34,50.863,52
						C1567.148,2802.431,1622.44,2838.873,1677.731,2875.256z"/>
				</g>
				<g style="opacity:0.6;">
					<path style="fill:#FFFFFF;" d="M1497.256,2756.175c-37.28,58.344-73.183,117.644-107.531,177.723
						c-66.9,116.687-128.116,236.604-183.527,359.215c-1.676,3.71-3.351,7.42-5.027,11.13c-4.967,11.07-9.874,22.2-14.78,33.331
						c-11.071,25.252-21.662,55.172-10.173,79.586c-16.276-5.565-31.475-13.704-40.152-28.065
						c-15.139-25.133-3.89-57.206,7.839-84.015c4.907-11.13,9.814-22.26,14.78-33.33c1.675-3.71,3.351-7.42,5.026-11.13
						c55.411-122.611,116.627-242.529,183.527-359.215c36.263-63.43,74.201-125.962,113.755-187.417
						C1465.362,2731.103,1480.262,2744.268,1497.256,2756.175z"/>
				</g>
				<g>
					<path style="fill:#97D457;" d="M1677.731,2875.256c-0.18,1.376-0.359,2.752-0.599,4.129
						c-40.93-26.928-81.86-53.915-122.79-80.903c-13.823-9.095-27.945-18.49-37.938-29.5
						C1570.2,2804.406,1623.936,2839.89,1677.731,2875.256z"/>
				</g>
				<g>
					<path style="fill:#97D457;" d="M1516.405,2768.981c-1.496-1.017-3.052-1.975-4.548-2.992
						c-4.907-3.232-9.873-6.463-14.601-9.814c2.095-3.231,4.129-6.463,6.224-9.694
						C1505.634,2754.859,1510.241,2762.219,1516.405,2768.981z"/>
				</g>
				<g>
					<path style="fill:#000072;" d="M1443.137,3476.964c-6.079,0-12.507-0.122-19.37-0.361
						c-55.207-1.982-110.989-8.213-165.818-18.518c-0.3-0.044-0.596-0.093-0.884-0.146c-22.253-4.197-44.937-9.226-67.422-14.946
						c-27.983-7.087-56.047-17.207-71.621-42.988c-22.393-37.17-2.832-81.89,6.567-103.381
						c6.575-14.949,13.191-29.868,19.934-44.724c85.659-189.561,186.177-374.392,298.745-549.331
						c4.548-7.065,12.834-10.745,21.145-9.407c8.291,1.353,14.99,7.498,17.053,15.642c3.638,14.353,24.014,27.737,41.992,39.546
						l18.083,11.919c49.272,32.473,98.538,64.939,147.807,97.358c6.812,4.482,10.43,12.488,9.297,20.562
						c-15.466,110.117-40.042,275.544-74.751,440.11c-9.595,45.249-21.953,91.987-57.724,122.854
						c-22.092,19.094-50.808,30.249-87.778,34.094C1467.764,3476.398,1456.272,3476.964,1443.137,3476.964z M1264.128,3416.324
						c0.295,0.042,0.588,0.09,0.874,0.144c53,10,106.921,16.042,160.264,17.959c19.612,0.679,35.081,0.322,48.67-1.15
						c28.184-2.93,49.302-10.798,64.653-24.067c25.872-22.324,35.583-59.873,44.018-99.646
						c33.079-156.829,56.924-314.763,72.385-424.028c-45.557-29.983-91.111-60.005-136.672-90.032l-18.057-11.899
						c-12.903-8.477-27.568-18.11-39.36-30.208c-104.243,164.878-197.671,338.284-277.937,515.911
						c-6.689,14.736-13.237,29.504-19.726,44.265c-9.98,22.815-18.877,48.369-9.082,64.631
						c7.688,12.725,26.589,18.999,45.869,23.884C1221.426,3407.531,1242.983,3412.318,1264.128,3416.324z"/>
				</g>
				<g>
					<g>
						<path style="fill:#F7A668;" d="M2564.43,2534.471c0,51.881-6.642,102.206-19.089,149.897
							c-62.173,239.537-269.815,415.584-516.473,415.584c-295.726,0-535.562-253.18-535.562-565.481
							c0-26.688,1.735-52.958,5.206-78.689c36.263-275.081,259.942-486.792,530.356-486.792
							c160.728,0,304.941,74.799,403.137,193.221c62.472,75.338,106.275,168.388,123.867,271.072
							C2561.498,2466.075,2564.43,2499.944,2564.43,2534.471z"/>
					</g>
					<g style="opacity:0.6;">
						<path style="fill:#FFFFFF;" d="M2564.43,2534.471c0,51.881-6.642,102.206-19.089,149.897
							c-21.842,84.074-61.515,160.25-114.593,223.799c36.323-53.497,64.028-113.994,80.963-179.159
							c12.447-47.692,19.089-98.017,19.089-149.897c0-34.527-2.932-68.396-8.557-101.188
							c-17.593-102.684-61.395-195.734-123.867-271.072c-98.197-118.422-242.409-193.221-403.137-193.221
							c-160.01,0-303.684,74.141-401.761,191.725c97.06-143.135,255.933-236.365,435.391-236.365
							c160.728,0,304.941,74.799,403.137,193.221c62.472,75.338,106.275,168.388,123.867,271.072
							C2561.498,2466.075,2564.43,2499.944,2564.43,2534.471z"/>
					</g>
					<g style="opacity:0.2;">
						<path style="fill:#000072;" d="M2564.43,2534.471c0,51.881-6.642,102.206-19.089,149.897
							c-62.173,239.537-269.815,415.584-516.473,415.584c-295.726,0-535.562-253.18-535.562-565.481
							c0-26.688,1.735-52.958,5.206-78.689c70.79,92.691,164.378,167.969,271.491,214.344
							c206.386,89.28,456.813,68.277,645.486-54.035c49.188-31.894,95.504-71.688,121.234-124.346
							c9.096-18.55,15.379-38.237,19.149-58.463C2561.498,2466.075,2564.43,2499.944,2564.43,2534.471z"/>
					</g>
					<g>
						<path style="fill:#000072;" d="M2028.884,3121.049c-306.946,0-556.663-263.14-556.663-586.582
							s249.717-586.582,556.663-586.582c160.679,0,313.535,73.208,419.38,200.852c88.528,106.775,137.283,243.762,137.283,385.73
							c0,52.739-6.65,104.968-19.766,155.232C2499.863,2943.661,2279.079,3121.049,2028.884,3121.049z M2028.884,1990.087
							c-283.674,0-514.461,244.209-514.461,544.38s230.786,544.38,514.461,544.38c230.974,0,434.958-164.395,496.055-399.775
							c12.217-46.816,18.406-95.459,18.406-144.604c0-132.153-45.305-259.575-127.568-358.792
							C2317.978,2057.731,2176.96,1990.087,2028.884,1990.087z"/>
					</g>
					<g>
						<path style="fill:#000072;" d="M2545.364,2705.472c-2.954,0-5.908-0.62-8.667-1.863
							c-59.087-26.616-105.449-46.187-153.926-61.475c-3.367-1.062-6.414-2.954-8.862-5.498
							c-8.188-8.518-16.138-16.726-23.865-24.705c-15.693-16.204-30.515-31.511-44.602-46.558
							c-35.212-37.617-49.543-90.134-38.33-140.483c11.106-49.883,21.98-96.741,34.021-148.447c0.532-2.275,1.436-4.448,2.678-6.428
							c31.606-50.364,68-88.181,103.196-124.753l0.422-0.439c5.32-5.53,13.223-7.739,20.632-5.759
							c3.43,0.913,6.809,1.941,10.173,2.976c3.923,1.211,7.41,3.538,10.029,6.697c88.528,106.775,137.283,243.762,137.283,385.73
							c0,52.739-6.65,104.968-19.766,155.232c-1.57,6.013-5.708,11.028-11.313,13.708
							C2551.592,2704.784,2548.479,2705.472,2545.364,2705.472z M2400.617,2603.531c41.748,13.464,83.171,30.417,130.1,51.184
							c8.386-39.229,12.627-79.565,12.627-120.249c0-127.048-41.87-249.722-118.198-347.168
							c-29.978,31.345-58.325,62.4-83.721,102.197c-11.697,50.225-22.305,95.991-33.123,144.568
							c-8.179,36.731,2.268,75.037,27.949,102.468c13.84,14.788,28.542,29.968,44.109,46.042
							C2386.948,2589.376,2393.698,2596.346,2400.617,2603.531z"/>
					</g>
				</g>
				<g>
					<g>
						<path style="fill:#97D457;" d="M1424.791,2518.434c17.892,51.701,16.815,111.062-17.353,156.001
							c-33.51,43.982-96.521,68.157-156.719,63.789c-52.958-3.89-105.198-30.638-127.158-73.064
							c-17.533-33.869-11.37-76.893,15.259-104.898c6.582-7.061,14.541-13.105,23.696-17.892
							c-73.004-55.89-92.332-146.965-55.77-219.132c24.774-48.948,71.03-86.947,119.439-119.619
							c31.595-21.363,64.626-41.05,98.855-58.942c85.57-44.879,178.62-78.748,275.261-100.111
							c-96.701,110.822-181.254,222.842-265.806,334.86C1372.252,2421.075,1406.899,2466.793,1424.791,2518.434z"/>
					</g>
					<g style="opacity:0.6;">
						<path style="fill:#FFFFFF;" d="M1600.3,2044.567c-15.798,18.071-31.236,36.203-46.435,54.394
							c-64.088,19.927-125.962,45.418-184.305,75.996c-34.228,17.892-67.259,37.579-98.855,58.942
							c-48.41,32.672-94.666,70.67-119.439,119.619c-36.562,72.166-17.233,163.241,55.77,219.131
							c-9.155,4.787-17.114,10.831-23.696,17.892c-26.629,28.005-32.792,71.029-15.259,104.898
							c5.146,9.933,11.908,18.969,20.046,27.047c-28.005-12.626-51.581-32.253-64.566-57.326
							c-17.533-33.869-11.37-76.893,15.259-104.898c6.582-7.061,14.541-13.105,23.696-17.892
							c-73.004-55.89-92.332-146.965-55.77-219.132c24.774-48.948,71.03-86.947,119.439-119.619
							c31.595-21.363,64.626-41.05,98.855-58.942C1410.609,2099.798,1503.659,2065.929,1600.3,2044.567z"/>
					</g>
					<g>
						<path style="fill:#000072;" d="M1265.136,2759.823c-5.315,0-10.637-0.193-15.972-0.583
							c-63.574-4.653-120.225-37.769-144.326-84.365c-23.271-44.995-11.89-100.603,23.762-134.087
							c-62.063-61.16-79.197-151.011-40.698-227.087c28.716-56.753,82.683-97.998,126.492-127.588
							c112.202-75.762,244.072-131.829,381.353-162.144c8.889-1.948,18.052,2.004,22.7,9.841c4.648,7.837,3.74,17.771-2.251,24.636
							c-92.202,105.674-174.758,214.368-254.436,319.907c42.209,48.477,68.037,90.049,82.971,133.198
							c22.473,64.946,14.997,128.96-20.508,175.63C1389.91,2732.255,1328.73,2759.818,1265.136,2759.823z M1541.145,2081.271
							c-109.016,31.038-212.746,78.787-303.13,139.814c-39.578,26.731-88.128,63.584-112.456,111.67
							c-33.237,65.681-12.764,144.978,49.788,192.839c5.735,4.387,8.826,11.401,8.198,18.594
							c-0.627,7.192-4.89,13.564-11.296,16.892c-33.652,17.473-47.356,60.706-29.924,94.404
							c17.241,33.333,61.414,58.115,109.922,61.665c54.429,3.982,110.071-18.328,138.394-55.525
							c26.804-35.232,31.985-84.902,14.209-136.272c-14.304-41.335-40.823-81.96-85.979-131.726
							c-6.812-7.507-7.322-18.799-1.216-26.892C1388.432,2272.958,1461.262,2176.464,1541.145,2081.271z"/>
					</g>
					<g>
						<path style="fill:#000072;" d="M1173.24,2524.075c13.531,16.86,29.994,32.141,48.58,45.144l0.111,0.078
							c5.033,3.521,6.257,10.457,2.737,15.488c-2.896,4.138-8.109,5.693-12.664,4.163c-23.324-7.864-46.058-19.006-67.173-33.665
							l-0.428-0.295c-9.689-6.729-12.09-20.037-5.363-29.724c6.726-9.69,20.034-12.092,29.723-5.364
							C1170.464,2521.079,1171.998,2522.544,1173.24,2524.075z"/>
					</g>
					<g style="opacity:0.2;">
						<path style="fill:#000072;" d="M1424.791,2518.434c17.892,51.701,16.815,111.062-17.353,156.001
							c-33.51,43.982-96.521,68.157-156.719,63.789c-52.958-3.89-105.198-30.638-127.158-73.064
							c-17.533-33.869-11.37-76.893,15.259-104.898c2.513,0.957,5.146,1.795,7.779,2.513c28.723,7.839,65.344-4.787,72.944-33.57
							c5.445-20.345-4.608-41.169-11.489-61.096c-28.603-82.997-1.077-177.064,50.026-248.393
							c19.687-27.406,42.366-52.18,66.96-75.038c85.57-44.879,178.62-78.748,275.261-100.111
							c-96.701,110.822-181.254,222.842-265.806,334.86C1372.252,2421.075,1406.899,2466.793,1424.791,2518.434z"/>
					</g>
				</g>
				<g>
					<path style="fill:#26004F;" d="M1649.541,2959.235c-7.563,0-14.878-4.08-18.664-11.23
						c-110.823-209.25-127.253-466.506-43.953-688.157c4.099-10.911,16.272-16.421,27.175-12.332
						c10.908,4.102,16.428,16.267,12.327,27.178c-79.111,210.505-63.506,454.829,41.745,653.56
						c5.454,10.298,1.526,23.069-8.772,28.523C1656.252,2958.444,1652.871,2959.235,1649.541,2959.235z"/>
				</g>
				<g>
					<g>
						<path style="fill:#F7E965;" d="M1260.973,3437.205c-22.207-4.189-44.227-9.095-66.129-14.661
							c-22.44-5.685-46.788-13.637-58.756-33.45c-15.139-25.133-3.896-57.207,7.833-84.014c6.522-14.84,13.111-29.68,19.813-44.461
							c11.124-2.453,22.853-2.513,33.863,0.299c34.054,8.677,59.6,39.494,68.516,73.483
							C1274.85,3367.911,1269.344,3403.754,1260.973,3437.205z"/>
					</g>
					<g>
						<path style="fill:#000072;" d="M1260.994,3458.309c-1.299,0-2.612-0.12-3.931-0.369c-22.139-4.175-44.819-9.204-67.414-14.944
							c-27.991-7.092-56.05-17.214-71.621-42.996c-22.4-37.18-2.839-81.892,6.563-103.379c6.57-14.949,13.191-29.866,19.929-44.719
							c2.744-6.052,8.181-10.459,14.67-11.89c14.688-3.242,29.773-3.076,43.63,0.461c39.36,10.029,72.222,44.795,83.704,88.572
							c10.525,40.371,2.813,81.743-5.081,113.281C1279.057,3451.864,1270.493,3458.309,1260.994,3458.309z M1178.169,3279.935
							c-5.029,11.194-10,22.417-14.932,33.635c-9.98,22.813-18.875,48.362-9.075,64.634c7.686,12.725,26.587,19.001,45.864,23.887
							c15.007,3.811,30.042,7.295,44.907,10.408c4.516-22.861,6.995-48.857,0.762-72.776c-7.527-28.687-28.953-52.151-53.308-58.357
							C1187.876,3280.216,1183.059,3279.725,1178.169,3279.935z"/>
					</g>
				</g>
				<g>
					<g>
						<path style="fill:#F7E965;" d="M1476.213,3454.256c-17.114,1.861-34.707,1.861-51.707,1.257
							c-54.807-1.969-109.5-8.132-163.415-18.311c9.694-30.338,19.801-61.275,39.135-86.641
							c19.561-25.797,50.738-45.185,82.937-41.887c23.391,2.388,44.461,16.456,59.002,34.88
							c14.475,18.496,22.972,40.996,28.477,63.854C1474.298,3422.601,1476.626,3438.584,1476.213,3454.256z"/>
					</g>
					<g>
						<path style="fill:#000072;" d="M1443.157,3476.969c-6.089,0-12.529-0.125-19.397-0.366
							c-55.508-1.997-111.55-8.276-166.582-18.665c-5.942-1.121-11.118-4.739-14.211-9.932c-3.096-5.195-3.816-11.467-1.975-17.227
							c9.624-30.117,20.532-64.253,42.454-93.013c26.253-34.622,65.278-53.835,101.868-50.085
							c27.398,2.795,54.158,18.396,73.418,42.8c14.685,18.762,25.273,42.288,32.427,71.985c4.502,18.708,6.572,36.318,6.15,52.344
							c-0.278,10.557-8.315,19.282-18.813,20.422C1467.795,3476.398,1456.289,3476.969,1443.157,3476.969z M1476.213,3454.257h0.049
							H1476.213z M1288.728,3420.673c45.286,7.502,91.104,12.122,136.536,13.755c10.759,0.378,20.271,0.444,28.909,0.178
							c-0.828-7.07-2.18-14.507-4.045-22.258c-5.708-23.701-13.748-41.951-24.578-55.789c-12.173-15.422-28.42-25.249-44.529-26.895
							c-21.687-2.207-46.799,10.986-63.979,33.645C1304.253,3380.087,1295.837,3400.126,1288.728,3420.673z"/>
					</g>
					<g style="opacity:0.2;">
						<path style="fill:#000072;" d="M1677.731,2875.256c-19.867,141.46-43.323,290.879-74.5,438.682
							c-8.617,40.631-19.448,84.134-50.863,111.241c-21.123,18.251-48.051,26.15-76.175,29.082
							c-17.114,1.855-34.707,1.855-51.701,1.256c-54.813-1.975-109.506-8.138-163.421-18.311h-0.12
							c-22.2-4.189-44.221-9.096-66.122-14.661c-22.44-5.685-46.794-13.643-58.762-33.45c-15.139-25.133-3.89-57.206,7.839-84.015
							c4.907-11.13,9.814-22.26,14.78-33.33c14.601,32.134,42.007,58.343,73.542,74.799c38.896,20.225,83.536,26.987,127.338,27.526
							c49.966,0.598,106.753-10.831,132.664-53.496c24.414-40.152,11.549-93.29-13.285-133.202
							c-24.833-39.913-60.198-72.405-84.792-112.498c-31.835-51.94-43.144-112.019-46.914-173.474
							c36.263-63.43,74.201-125.962,113.755-187.417c5.565,21.961,28.543,37.34,50.863,52
							C1567.148,2802.431,1622.44,2838.873,1677.731,2875.256z"/>
					</g>
				</g>
				<g>
					<g>
						<path style="fill:#97D457;" d="M2498.966,3377.128c-11.968,19.867-36.323,27.825-58.762,33.51
							c-75.098,19.089-152.291,30.159-229.723,32.971c-30.698,1.137-63.429,0.239-91.853-9.874
							c-13.105-4.607-25.252-11.25-35.963-20.465c-31.475-27.167-42.306-70.61-50.863-111.241
							c-31.176-147.803-54.693-297.222-74.5-438.682c30.159-119.021,151.274-223.081,156.899-245.102
							c47.453,73.782,101.846,161.985,155.822,254.257c48.41,82.818,96.521,168.867,139.066,250.846
							c25.013,48.291,48.111,95.085,68.157,139.007c4.787,10.472,9.395,20.704,13.823,30.817
							C2502.855,3319.981,2514.045,3352.055,2498.966,3377.128z"/>
					</g>
					<g style="opacity:0.6;">
						<path style="fill:#FFFFFF;" d="M2498.966,3377.128c-11.968,19.867-36.323,27.825-58.762,33.51
							c-1.137,0.299-2.214,0.539-3.351,0.838c4.189-3.59,7.779-7.66,10.711-12.507c15.08-25.073,3.89-57.146-7.899-83.954
							c-4.428-10.113-9.035-20.345-13.823-30.817c-20.046-43.922-43.144-90.716-68.157-139.007
							c-42.546-81.98-90.656-168.029-139.066-250.846c-48.171-82.339-96.641-161.387-140.263-229.903
							c19.567-22.739,33.989-38.955,35.844-46.196c47.453,73.782,101.846,161.985,155.822,254.257
							c48.41,82.818,96.521,168.867,139.066,250.846c25.013,48.291,48.111,95.085,68.157,139.007
							c4.787,10.472,9.395,20.704,13.823,30.817C2502.855,3319.981,2514.045,3352.055,2498.966,3377.128z"/>
					</g>
					<g>
						<path style="fill:#000072;" d="M2191.382,3465.094c-25.073,0-53.706-2.192-79.814-11.479
							c-16.079-5.659-30.452-13.86-42.646-24.351c-35.94-31.021-48.235-77.715-57.747-122.888
							c-26.633-126.257-50.388-266.106-74.756-440.103c-0.381-2.708-0.229-5.461,0.442-8.11
							c22.329-88.101,90.137-166.582,130.649-213.472c11.245-13.018,23.962-27.734,26.572-32.756
							c2.375-7.59,8.845-13.237,16.76-14.521c8.286-1.345,16.587,2.356,21.125,9.419
							c115.154,179.109,271.377,443.066,364.487,646.75c4.832,10.571,9.48,20.903,13.958,31.113
							c14.358,32.673,26.384,70.51,6.655,103.306c-0.002,0.005-0.005,0.007-0.007,0.012c-15.569,25.847-43.64,35.979-71.653,43.076
							c-76.44,19.431-155.22,30.737-234.141,33.604C2205,3464.926,2198.325,3465.094,2191.382,3465.094z M1978.799,2864.611
							c24.026,171.064,47.454,308.784,73.669,433.062c8.362,39.705,18.018,77.195,44.001,99.622
							c8.174,7.031,17.998,12.603,29.175,16.536c26.648,9.48,58.918,9.629,84.075,8.691c75.95-2.759,151.748-13.638,225.308-32.336
							c19.282-4.885,38.176-11.165,45.879-23.936l0,0c9.8-16.294,0.881-41.794-9.138-64.59c-4.397-10.029-8.953-20.161-13.694-30.53
							c-87.725-191.902-232.38-438.384-344.729-615.078c-3.962,4.707-8.567,10.054-13.901,16.23
							C2062.004,2715.614,1999.763,2787.65,1978.799,2864.611z M2498.987,3377.125h0.049H2498.987z M2093.943,2612.404
							c-0.068,0.217-0.12,0.425-0.168,0.618C2093.828,2612.814,2093.884,2612.609,2093.943,2612.404z"/>
					</g>
					<g>
						<g>
							<path style="fill:#F7E965;" d="M2498.986,3377.125c-11.968,19.866-36.323,27.825-58.762,33.51
								c-75.098,19.089-152.297,30.159-229.723,32.971c-30.698,1.137-63.436,0.24-91.859-9.873
								c-0.293-11.848,0.784-23.218,3.357-34.348c6.822-29.74,25.372-57.386,52.18-71.927c26.868-14.535,61.993-14.361,86.821,3.351
								c9.58-28.483,30.883-46.375,55.351-52.12c24.48-5.685,51.528,0.898,70.557,17.234c20.884-26.688,53.018-37.22,84.194-34.348
								c2.035,0.179,4.129,0.419,6.164,0.778c4.787,10.472,9.389,20.704,13.823,30.817
								C2502.869,3319.979,2514.065,3352.059,2498.986,3377.125z"/>
						</g>
						<g>
							<path style="fill:#000072;" d="M2191.382,3465.094c-25.073,0-53.706-2.192-79.814-11.479
								c-8.23-2.927-13.806-10.625-14.021-19.358c-0.344-13.853,0.93-26.812,3.892-39.624c8.484-36.978,31.919-69.036,62.678-85.72
								c27.112-14.668,59.644-16.785,87.061-6.821c13.606-22.346,34.719-37.925,60.349-43.943
								c24.358-5.664,50.659-1.709,72.461,10.254c23.481-20.684,55.5-30.898,89.05-27.839c2.893,0.254,5.515,0.588,7.917,1.016
								c6.824,1.213,12.617,5.698,15.498,12.002c4.836,10.574,9.482,20.906,13.96,31.118c14.358,32.671,26.384,70.508,6.655,103.303
								c-0.002,0.005-0.005,0.007-0.007,0.012c-15.569,25.847-43.64,35.979-71.653,43.076
								c-76.44,19.431-155.222,30.737-234.141,33.604C2205,3464.926,2198.325,3465.094,2191.382,3465.094z M2140.271,3418.041
								c23.208,5.283,48.738,5.247,69.448,4.48c75.95-2.759,151.748-13.638,225.308-32.336c19.29-4.888,38.186-11.169,45.886-23.948
								c9.79-16.294,0.872-41.787-9.146-64.578c-2.815-6.418-5.693-12.881-8.645-19.419c-24.397-0.645-45.735,8.97-59.597,26.687
								c-3.552,4.539-8.804,7.427-14.539,7.996c-5.747,0.574-11.455-1.235-15.825-4.99c-14.009-12.026-33.945-16.897-52.039-12.688
								c-18.782,4.409-33.425,18.372-40.125,38.291c-2.131,6.335-7.136,11.287-13.496,13.347c-6.365,2.058-13.318,0.984-18.76-2.896
								c-17.31-12.346-43.84-13.159-64.524-1.968c-20.251,10.984-35.833,32.703-41.655,58.086
								C2141.504,3408.688,2140.742,3413.309,2140.271,3418.041z M2498.987,3377.125h0.049H2498.987z"/>
						</g>
						<g>
							<path style="fill:#000072;" d="M2295.654,3449.039c-0.2,0-0.4-0.002-0.601-0.007c-11.65-0.327-20.83-10.034-20.505-21.682
								c0.85-30.452-11.345-61.655-32.625-83.464c-8.137-8.342-7.971-21.702,0.371-29.841c8.34-8.132,21.702-7.969,29.839,0.369
								c29.524,30.264,45.781,71.858,44.602,114.114C2316.416,3439.974,2307.033,3449.039,2295.654,3449.039z"/>
						</g>
						<g>
							<path style="fill:#000072;" d="M2428.65,3414.198c-11.594,0-21.028-9.363-21.099-20.974
								c-0.186-30.764-13.716-61.675-36.189-82.683c-8.513-7.959-8.965-21.311-1.006-29.824c7.961-8.513,21.313-8.962,29.824-1.006
								c30.786,28.779,49.316,71.118,49.573,113.259c0.071,11.653-9.319,21.157-20.974,21.228
								C2428.738,3414.198,2428.694,3414.198,2428.65,3414.198z"/>
						</g>
					</g>
					<g style="opacity:0.2;">
						<path style="fill:#000072;" d="M2494.293,3293.173c-4.428-10.113-9.036-20.345-13.823-30.817
							c-20.046-43.922-43.144-90.717-68.157-139.007c-3.889,25.313-13.224,49.786-27.646,70.97
							c-29.441,43.264-79.466,71.927-131.706,75.457c-28.184,1.915-57.386-3.411-81.261-18.551
							c-23.876-15.139-41.708-40.75-44.042-68.875c-2.573-30.279,12.147-59.002,26.389-85.81
							c39.793-74.619,79.526-149.359,119.2-224.038c-53.975-92.272-108.369-180.475-155.821-254.257
							c-5.625,22.021-126.74,126.082-156.899,245.102c19.807,141.46,43.324,290.879,74.5,438.682
							c8.557,40.631,19.388,84.074,50.863,111.241c10.711,9.215,22.859,15.858,35.964,20.465
							c28.424,10.113,61.156,11.01,91.853,9.874c77.432-2.812,154.625-13.883,229.723-32.971
							c22.44-5.685,46.794-13.643,58.762-33.51C2517.271,3352.055,2506.081,3319.981,2494.293,3293.173z M2216.519,3382.094
							c-24.175,0-43.802-14.182-43.802-31.655c0-17.473,19.627-31.655,43.802-31.655c24.115,0,43.742,14.182,43.742,31.655
							C2260.261,3367.912,2240.634,3382.094,2216.519,3382.094z M2338.352,3352.534c-27.945,0-50.624-12.865-50.624-28.723
							c0-15.857,22.679-28.663,50.624-28.663s50.624,12.806,50.624,28.663C2388.976,3339.668,2366.297,3352.534,2338.352,3352.534z
							 M2448.037,3323.811c-20.764,0-37.579-10.472-37.579-23.397c0-12.866,16.815-23.397,37.579-23.397
							c20.764,0,37.579,10.532,37.579,23.397C2485.616,3313.339,2468.801,3323.811,2448.037,3323.811z"/>
					</g>
				</g>
				<g>
					<g>
						<ellipse style="fill:#F7A863;" cx="1808.297" cy="2541.591" rx="487.391" ry="634.296"/>
					</g>
					<g style="opacity:0.2;">
						<path style="fill:#000072;" d="M2295.692,2541.592c0,350.299-218.234,634.296-487.391,634.296
							c-120.457,0-230.74-56.847-315.712-151.154c76.115,64.028,166.772,101.129,264.071,101.129
							c269.217,0,487.391-283.998,487.391-634.296c0-193.401-66.482-366.576-171.38-482.903
							C2206.89,2121.64,2295.692,2318.092,2295.692,2541.592z"/>
					</g>
					<g>
						<path style="fill:#000072;" d="M1808.296,3196.989c-313.65,0-508.491-251.133-508.491-655.398
							c0-361.387,228.108-655.398,508.491-655.398s508.494,294.011,508.494,655.398S2088.679,3196.989,1808.296,3196.989z
							 M1808.296,1928.395c-257.112,0-466.289,275.078-466.289,613.196c0,177.676,39.892,328.586,115.369,436.414
							c82.105,117.305,200.171,176.782,350.92,176.782c257.114,0,466.292-275.078,466.292-613.196
							S2065.41,1928.395,1808.296,1928.395z"/>
					</g>
				</g>
				<g>
					<g>
						<path style="fill:#F7E965;" d="M2106.6,2788.01c-46.196,90.537-104.839,177.962-188.614,235.527
							c-83.775,57.565-196.752,80.484-289.024,37.759c-60.797-28.125-106.753-81.142-142.597-137.81
							c-35.784-56.668-63.31-118.242-99.094-174.91c-35.844-56.728-80.125-109.087-104.36-171.679
							c-38.537-99.572-20.046-215.9,35.126-307.394c23.995-39.793,60.497-88.682,119.02-131.168
							c21.183-15.379,45.179-29.92,72.525-42.905c70.67-33.51,163.421-56.548,286.032-56.548c54.274,0,109.506,6.523,160.668,23.756
							c25.552,8.557,50.145,19.807,73.064,34.228c107.95,67.858,166.772,197.589,172.038,324.927
							C2206.651,2549.191,2164.524,2674.435,2106.6,2788.01z"/>
					</g>
					<g style="opacity:0.6;">
						<path style="fill:#FFFFFF;" d="M2200.308,2483.308c-9.634-121.594-67.917-242.768-170.961-307.514
							c-22.918-14.421-47.512-25.671-73.064-34.228c-51.162-17.233-106.394-23.756-160.668-23.756
							c-122.611,0-215.362,23.038-286.032,56.548c-27.347,12.985-51.342,27.526-72.525,42.905
							c-58.523,42.486-95.025,91.375-119.02,131.168c-28.364,47.034-47.034,100.59-53.257,155.104
							c-9.515-80.185,11.19-164.319,53.257-234.032c23.995-39.793,60.497-88.682,119.02-131.168
							c21.183-15.379,45.179-29.92,72.525-42.905c70.67-33.51,163.421-56.548,286.032-56.548c54.274,0,109.506,6.523,160.668,23.756
							c25.552,8.557,50.145,19.807,73.064,34.228c107.95,67.858,166.772,197.589,172.038,324.927
							C2202.223,2442.378,2201.864,2462.903,2200.308,2483.308z"/>
					</g>
					<g style="opacity:0.2;">
						<path style="fill:#000072;" d="M2106.6,2788.01c-46.196,90.537-104.839,177.962-188.614,235.527
							c-83.775,57.565-196.752,80.484-289.024,37.759c-60.797-28.125-106.753-81.142-142.597-137.81
							c-35.784-56.668-63.31-118.242-99.094-174.91c-35.844-56.728-80.125-109.087-104.36-171.679
							c-38.537-99.572-20.046-215.9,35.126-307.394c23.995-39.793,60.497-88.682,119.02-131.168
							c-62.173,69.653-122.255,196.467-116.152,289.697c7.899,120.337,68.112,231.683,216.084,256.636
							c-40.631,3.89-57.086,58.523-42.785,96.76c14.302,38.177,46.854,66.182,69.354,100.231
							c19.508,29.561,32.074,64.507,58.224,88.442c39.135,35.784,99.094,37.639,150.556,24.774
							c65.644-16.336,125.902-53.616,169.943-105.018c78.27-91.435,100.111-216.917,119.021-335.818
							c10.951-68.756,21.961-138.109,18.012-207.643c-5.864-105.198-49.308-209.617-123.03-283.758
							c25.552,8.557,50.145,19.807,73.064,34.228c107.95,67.858,166.772,197.589,172.038,324.927
							C2206.651,2549.191,2164.524,2674.435,2106.6,2788.01z"/>
					</g>
					<g>
						<path style="fill:#000072;" d="M1733.779,3104.65c-39.895,0-78.606-7.954-113.667-24.18
							c-56.597-26.191-106.177-73.848-151.575-145.693c-18.347-29.036-34.661-59.497-50.435-88.955
							c-15.359-28.679-31.24-58.335-48.689-85.984c-10.449-16.56-21.953-33.186-33.076-49.268
							c-27.136-39.226-55.198-79.788-73.098-126.023c-39.138-101.094-25.417-222.93,36.704-325.913l0,0
							c96.404-159.807,263.179-240.835,495.693-240.835c97.944,0,180.359,20.593,244.958,61.208
							c106.228,66.799,175.92,197.822,181.885,341.943c4.8,116.006-26.956,239.209-97.078,376.648
							c-58.459,114.551-120.574,191.873-195.481,243.342C1868.803,3082.933,1799.685,3104.65,1733.779,3104.65z M1336.081,2280.431
							c-55.427,91.885-67.944,199.875-33.486,288.879c16.096,41.572,41.526,78.333,68.45,117.251
							c11.372,16.44,23.135,33.442,34.058,50.754c18.254,28.921,34.497,59.253,50.203,88.584
							c15.422,28.799,31.37,58.579,48.909,86.333c40.92,64.763,84.629,107.266,133.623,129.937
							c78.325,36.248,183.591,22.109,268.186-36.011c68.887-47.332,126.65-119.697,181.789-227.742
							c66.736-130.801,96.992-247.158,92.5-355.723c-5.396-130.444-67.542-248.447-162.18-307.959
							c-57.764-36.318-132.625-54.734-222.495-54.734C1578.933,2060.001,1424.316,2134.164,1336.081,2280.431L1336.081,2280.431z"/>
					</g>
					<g>
						<path style="fill:#E3DC5D;" d="M1758.515,2189.138c-140.802,19.568-263.353-25.372-273.705-100.41
							c-2.394-17.115,1.316-34.348,10.053-50.923c29.62-56.129,117.285-105.198,225.953-120.277
							c116.687-16.156,220.927,11.968,258.984,64.866c7.899,10.831,12.926,22.799,14.721,35.604
							C2004.933,2092.977,1899.256,2169.631,1758.515,2189.138z"/>
					</g>
					<g>
						<path style="fill:#000072;" d="M1693.291,2214.838c-46.687,0-90.613-6.982-127.805-20.627
							c-59.368-21.782-95.452-58.21-101.607-102.576l0,0c-6.16-44.363,18.64-89.246,69.827-126.375
							c47.329-34.331,112.737-58.696,184.18-68.613c154.604-21.475,285.31,30.542,297.52,118.418
							c6.157,44.368-18.643,89.25-69.829,126.379c-47.329,34.329-112.742,58.696-184.185,68.613
							C1738.357,2213.256,1715.51,2214.838,1693.291,2214.838z M1785.683,1934.113c-20.032,0-40.842,1.399-61.995,4.336
							c-64.71,8.982-123.379,30.635-165.203,60.974c-37.414,27.139-56.663,58.633-52.805,86.409c0,0.002,0,0.002,0,0.002
							c3.852,27.776,30.95,52.837,74.341,68.757c48.508,17.793,110.859,22.651,175.566,13.665
							c64.712-8.982,123.384-30.635,165.207-60.974c37.417-27.139,56.663-58.635,52.808-86.414
							C1966.394,1968.973,1885.74,1934.113,1785.683,1934.113z"/>
					</g>
					<g>
						<path style="fill:#000072;" d="M1373.188,2391.98c44.631,13.303,88.149,25.083,132.137,33.528
							c43.903,8.569,88,14.084,132.28,16.504c44.28,2.393,88.708,1.753,133.284-1.953c44.642-3.582,89.185-10.5,135.024-18.782
							c-39.584,24.749-84.122,41.272-129.99,51.58c-45.945,10.188-93.479,13.914-140.635,11.279
							c-47.157-2.61-93.988-11.523-138.535-26.689C1452.3,2442.161,1409.846,2420.869,1373.188,2391.98z"/>
					</g>
					<g>
						<path style="fill:#000072;" d="M1365.212,2602.031c38.984,10.596,76.375,21.223,114.126,29.597
							c37.648,8.545,75.325,15.269,113.254,20.105c37.931,4.814,76.08,7.798,114.664,9.009c38.64,1.389,77.496,0.54,117.904,0.154
							c-36.433,17.686-76.084,27.734-116.279,32.988c-40.255,5.076-81.283,4.9-121.644-0.303
							c-40.364-5.186-80.107-15.344-117.784-30.396C1431.884,2647.966,1396.041,2628.276,1365.212,2602.031z"/>
					</g>
					<g>
						<path style="fill:#000072;" d="M1437.71,2801.582c34.072,6.045,66.34,12.107,98.799,16.628
							c32.357,4.661,64.556,8.186,96.832,10.498c32.279,2.258,64.585,3.413,97.18,3.179c32.681-0.095,65.328-1.936,99.872-4.167
							c-29.022,19.124-62.52,30.383-96.473,37.178c-34.081,6.611-69.045,8.391-103.612,5.891
							c-34.572-2.52-68.831-9.304-101.604-20.442C1496.064,2839.014,1464.476,2823.704,1437.71,2801.582z"/>
					</g>
					<g>
						<path style="fill:#000072;" d="M1634.052,2250.671c-7.057,14.304-12.988,28.914-18.416,43.645
							c-2.642,7.397-5.251,14.771-7.751,22.161c-2.311,7.48-4.742,14.871-6.731,22.417c-8.639,29.902-15.275,60.171-19.932,90.662
							c-4.717,30.474-7.679,61.111-8.973,91.809c-1.119,30.713-0.607,61.46,1.355,92.144l1.637,23.02l2.506,22.961
							c0.406,3.831,0.719,7.673,1.204,11.497l1.631,11.45l3.271,22.92c2.759,15.2,4.968,30.522,8.292,45.667l4.629,22.805
							l5.337,22.693c14.218,60.632,32.985,120.532,52.778,181.196c-35.615-53-63.599-111.106-84.642-171.929l-7.716-22.898
							l-6.589-23.271c-4.75-15.444-7.709-31.353-11.469-47.085c-6.135-31.755-11.091-63.862-12.971-96.309
							c-1.901-32.415-1.855-65.002,0.896-97.417c2.926-32.393,8.279-64.585,16.454-96.016c8.153-31.423,19.02-62.126,33.051-91.26
							c7.114-14.514,14.614-28.804,23.308-42.373C1613.835,2275.591,1623.112,2262.373,1634.052,2250.671z"/>
					</g>
				</g>
				<g>
					<g>
						<path style="fill:#97D457;" d="M2449.24,2398.815c-12.327,38.237-35.006,72.106-57.386,105.437
							c11.25,8.377,20.285,18.49,27.227,29.74c14.66,23.517,20.225,51.94,17.652,79.766c-1.855,20.106-7.958,39.913-17.952,57.326
							c-30.518,52.958-89.459,84.732-149.598,95.862c-58.643,10.831-123.329,2.992-170.302-33.749
							c-64.327-50.205-81.262-144.273-60.019-223.021c21.243-78.749,73.662-145.17,128.595-205.488
							c-42.725-42.187-82.219-86.168-121.713-130.15c-18.131-20.226-37.16-42.306-39.913-69.294
							c-0.359-3.292-0.359-6.643-0.179-9.934c0.778-11.19,4.787-21.004,10.951-28.962c2.693-3.531,5.744-6.702,9.155-9.455
							c17.713-14.422,43.982-18.251,66.122-5.685c92.033,52.18,181.493,107.113,270.953,161.985
							c30.159,18.55,61.574,38.297,79.347,68.875C2462.404,2316.776,2461.566,2360.578,2449.24,2398.815z"/>
					</g>
					<g style="opacity:0.6;">
						<path style="fill:#FFFFFF;" d="M2449.24,2398.815c-12.327,38.237-35.006,72.106-57.386,105.437
							c11.25,8.377,20.285,18.49,27.227,29.74c14.66,23.517,20.225,51.94,17.652,79.766
							c-28.962-30.817-65.105-54.693-105.497-67.558c20.884-38.297,41.948-77.014,53.257-119.2
							c11.25-42.127,52.846-123.756-106.001-199.41c-89.76-42.75-170.097-123.124-261.891-161.241
							c2.693-3.531,5.744-6.702,9.155-9.455c17.713-14.422,43.982-18.251,66.122-5.685
							c92.033,52.18,181.493,107.113,270.953,161.985c30.159,18.55,61.574,38.297,79.347,68.875
							C2462.404,2316.776,2461.566,2360.578,2449.24,2398.815z"/>
					</g>
					<g>
						<path style="fill:#000072;" d="M2220.776,2792.582c-51.631,0.002-99.07-14.751-134.905-42.756
							c-76.15-59.5-88.701-165.996-67.358-245.146c20.928-77.627,70.83-143.789,119.888-199.204
							c-37.722-38.193-73.401-77.915-108.027-116.465l-0.352-0.393c-17.561-19.563-41.607-46.35-45.188-81.201
							c-0.461-4.417-0.532-9.001-0.205-13.589c1.863-26.069,16.973-49.133,40.422-61.702c24.424-13.091,53.288-12.815,77.219,0.74
							c92.161,52.209,183.086,108.027,271.016,162.007l0.598,0.366c29.241,17.954,65.63,40.295,86.536,76.206
							c21.299,36.584,24.543,85.366,8.909,133.835c-11.343,35.166-30.183,65.935-49.663,95.327
							c48.301,49.189,48.103,127.698,17.371,181.033c-31.05,53.879-90.828,92.537-164.004,106.06
							C2255.339,2790.97,2237.824,2792.582,2220.776,2792.582z M2063.083,2064.73c-6.174,0-12.383,1.531-18.096,4.592
							c-10.771,5.771-17.427,15.798-18.264,27.507c-0.151,2.126-0.122,4.226,0.088,6.235c2.017,19.634,16.868,37.59,34.612,57.358
							l0.347,0.386c38.538,42.905,78.389,87.273,120.52,128.872c8.054,7.954,8.398,20.847,0.779,29.219
							c-52.217,57.368-103.357,120.911-123.809,196.765c-17.717,65.703-8.325,153.306,52.595,200.906
							c38.157,29.814,94.104,40.623,153.503,29.629c61.001-11.272,110.247-42.485,135.112-85.632
							c24.473-42.471,23.215-106.228-21.252-139.399c-9.019-6.729-11.172-19.348-4.895-28.687
							c21.299-31.685,43.325-64.451,54.839-100.159c11.963-37.085,10.063-73.403-5.215-99.648
							c-15.562-26.731-45.623-45.188-72.144-61.47l-0.598-0.369c-87.62-53.787-178.22-109.407-269.739-161.252h-0.002
							C2075.759,2066.349,2069.438,2064.73,2063.083,2064.73z"/>
					</g>
					<g>
						<path style="fill:#000072;" d="M2405.721,2520.144c-12.479,8.247-24.399,16.692-36.448,25.889
							c-12.063,9.187-24.329,18.599-36.637,27.715c-4.149,3.079-10.009,2.212-13.087-1.938c-2.583-3.481-2.375-8.179,0.206-11.416
							c9.51-11.895,18.729-23.838,28.174-35.977c9.431-12.163,19.646-24.419,30.022-36.05l0.142-0.159
							c7.827-8.774,21.287-9.543,30.062-1.716c8.774,7.827,9.543,21.287,1.716,30.063
							C2408.644,2517.93,2407.186,2519.165,2405.721,2520.144z"/>
					</g>
				</g>
				<g>
					<g>
						<path style="fill:#FF2929;" d="M2563.951,1003.722c-27.945,56.727-83.715,98.795-149.06,98.555
							c-3.231,0-6.522-0.119-9.814-0.359c-13.165-56.668-5.924-117.824,20.106-169.764c26.03-52,70.67-94.426,132.963-119.678
							c3.65,6.463,6.941,13.045,9.813,19.867C2591.118,886.437,2589.981,950.764,2563.951,1003.722z"/>
					</g>
					<g style="opacity:0.6;">
						<path style="fill:#FFFFFF;" d="M2567.96,832.342c-77.432,71.029-131.886,167.012-153.069,269.935
							c-3.231,0-6.522-0.119-9.814-0.359c-13.165-56.668-5.924-117.824,20.106-169.764c26.03-52,70.67-94.426,132.963-119.678
							C2561.797,818.938,2565.088,825.521,2567.96,832.342z"/>
					</g>
					<g>
						<path style="fill:#000072;" d="M2415.215,1123.334c-3.84,0-7.695-0.129-11.56-0.393c-9.255-0.63-17.014-7.231-19.119-16.265
							c-14.409-61.865-6.677-127.207,21.775-183.992c29.355-58.586,79.114-103.467,143.892-129.785
							c9.79-3.977,21.035-0.093,26.272,9.097c36.501,64.023,38.958,144.88,6.414,211.013
							C2549.399,1081.027,2484.487,1123.334,2415.215,1123.334z M2548.305,839.977c-46.47,22.93-82.292,57.761-104.265,101.614
							c-21.24,42.393-28.831,92.327-21.533,139.331c50.486-2.891,97.4-35.535,122.517-86.55
							C2568.264,947.147,2569.138,888.471,2548.305,839.977z"/>
					</g>
					<g>
						<path style="fill:#000072;" d="M2400.49,1086.426l106.304-160.586c2.893-4.37,8.782-5.571,13.153-2.678
							c4.048,2.678,5.374,7.93,3.251,12.163l-86.176,172.229c-5.223,10.439-17.922,14.67-28.363,9.446
							c-10.442-5.225-14.672-17.922-9.447-28.364C2399.579,1087.9,2400.051,1087.097,2400.49,1086.426z"/>
					</g>
					<g>
						<path style="fill:#FF2929;" d="M2709.181,1249.003c-0.658,0.419-1.317,0.778-1.975,1.137
							c-56.488,33.45-129.432,37.28-189.032,9.874c-60.378-27.646-105.317-86.528-102.505-156.121
							c1.735-0.479,3.47-0.898,5.266-1.316c54.813-13.045,113.934-7.061,164.977,16.755
							C2638.571,1143.985,2682.194,1187.488,2709.181,1249.003z"/>
					</g>
					<g style="opacity:0.6;">
						<path style="fill:#FFFFFF;" d="M2709.181,1249.003c-0.658,0.419-1.317,0.778-1.975,1.137
							c-83.356-68.875-181.672-119.738-286.271-147.563c54.813-13.045,113.934-7.061,164.977,16.755
							C2638.571,1143.985,2682.194,1187.488,2709.181,1249.003z"/>
					</g>
					<g>
						<path style="fill:#000072;" d="M2602.92,1299.379c-32.07,0-64.143-6.672-93.569-20.176
							c-72.717-33.372-117.764-102.524-114.763-176.174c0.378-9.268,6.765-17.205,15.74-19.553
							c61.455-16.084,126.98-10.132,184.517,16.768c59.358,27.742,105.574,76.26,133.652,140.308
							c4.248,9.69,0.664,21.025-8.381,26.514C2684.78,1288.497,2643.855,1299.379,2602.92,1299.379z M2437.104,1120.729
							c4.265,50.393,38.174,96.404,89.849,120.12c47.83,21.946,106.514,21.23,154.429-0.913
							c-24.187-45.835-59.98-80.698-104.412-101.462C2534.013,1118.385,2483.894,1112.155,2437.104,1120.729z"/>
					</g>
					<g>
						<path style="fill:#000072;" d="M2431.012,1098.872l162.471,103.628c3.505,2.236,4.532,6.887,2.299,10.391
							c-2.041,3.201-6.1,4.336-9.458,2.805l-175.441-79.731c-10.636-4.834-15.339-17.373-10.507-28.01
							c4.834-10.637,17.374-15.339,28.01-10.505C2429.269,1097.849,2430.212,1098.372,2431.012,1098.872z"/>
					</g>
					<g>
						<path style="fill:#97D457;" d="M2557.668,1462.151c-28.125,128.236-121.952,234.391-232.356,305.36
							c-110.403,70.909-237.262,111.301-366.516,149.478c-48.649,90.537-149.538,150.436-252.342,149.897
							c-102.744-0.598-202.975-61.754-233.194-151.393c-119.319-27.945-239.536-61.096-343.896-125.363
							c-104.36-64.327-192.204-164.378-216.199-284.596c-16.396-82.339,1.556-180.056,53.437-251.265
							c9.455-13.105,20.106-25.312,31.894-36.323c5.206-4.907,10.651-9.634,16.336-14.002c4.668-3.71,9.515-7.24,14.541-10.531
							c9.515-6.343,19.568-11.968,30.159-16.875c2.393-13.045,4.966-25.911,7.899-38.596
							c35.485-158.694,122.611-303.624,231.458-422.166c208.301-226.97,618.2-219.251,777.013-92.213
							c15.498,12.387,30.518,25.193,44.999,38.477c116.687,106.634,201.598,240.435,269.636,394.64
							c3.052,7.001,6.163,14.002,9.215,21.004c6.523,14.9,13.105,29.8,19.688,44.64c12.386,6.642,23.995,14.301,34.826,22.859
							c42.366,33.271,73.244,79.706,91.435,131.407C2566.584,1335.471,2571.072,1401.175,2557.668,1462.151z"/>
					</g>
					<g style="opacity:0.2;">
						<path style="fill:#000072;" d="M2529.968,1239.509c-0.149-0.298-0.291-0.599-0.441-0.897
							c-2.818-5.57-5.813-11.032-8.953-16.399c-0.38-0.65-0.753-1.302-1.137-1.948c-3.055-5.133-6.265-10.157-9.615-15.078
							c-0.525-0.772-1.052-1.54-1.584-2.306c-3.348-4.817-6.834-9.526-10.465-14.113c-0.588-0.743-1.187-1.474-1.782-2.21
							c-3.7-4.577-7.527-9.045-11.511-13.366c-0.561-0.608-1.138-1.198-1.705-1.801c-4.129-4.396-8.381-8.673-12.806-12.774
							c-0.399-0.37-0.814-0.721-1.216-1.088c-4.677-4.279-9.487-8.419-14.487-12.345c-10.831-8.557-22.44-16.217-34.826-22.859
							c-9.694-21.782-19.269-43.683-28.903-65.644c-68.037-154.206-152.949-288.007-269.636-394.64
							c87.317,138.378,151.761,291.199,189.54,450.45c-58.342,16.076-119.766,20.783-179.726,12.407
							c-106.335-14.781-203.753-67.08-308.292-91.255c-193.76-44.88-397.512,9.694-578.526,91.913
							c-73.722,33.45-149.957,72.465-229.065,78.389c-5.685,4.369-11.13,9.096-16.336,14.002
							c-4.291,4.008-8.378,8.226-12.365,12.537c-0.769,0.831-1.542,1.656-2.301,2.497c-3.701,4.114-7.285,8.331-10.71,12.684
							c-1.026,1.298-1.994,2.638-2.997,3.956c-1.173,1.551-2.384,3.072-3.522,4.649c0.006,0.06,0.013,0.12,0.019,0.18
							c-51.75,71.24-69.829,168.812-53.456,251.085c23.996,120.217,111.84,220.268,216.199,284.596
							c104.36,64.267,224.577,97.418,343.896,125.363c30.219,89.639,130.45,150.795,233.194,151.393
							c102.804,0.539,203.693-59.36,252.342-149.897c129.253-38.177,256.112-78.569,366.516-149.478
							c110.404-70.97,204.232-177.125,232.356-305.36C2573.944,1388.021,2563.762,1306.859,2529.968,1239.509z M1590.127,1155.415
							c42.785-2.393,83.655,19.448,115.909,47.632c32.313,28.244,58.104,62.951,88.084,93.589
							c10.515,10.757,21.556,20.982,33.062,30.652c13.956,11.729,7.995,34.371-9.948,37.593
							c-21.242,3.814-42.503,7.576-63.588,12.078c-78.917,16.848-156.421,44.388-237.089,46.503
							c-40.173,1.054-81.562-5.433-118.57-21.47c-21.18-9.178-37.074-24.063-52.548-38.688
							c32.698-33.173,63.44-68.426,93.594-103.948C1479.783,1211.365,1527.296,1158.945,1590.127,1155.415z M2163.686,1702.166
							c-87.709,47.788-180.475,85.152-275.679,115.31c-42.546,67.379-133.561,114.473-213.028,108.908
							c-79.466-5.565-154.026-57.505-186.699-130.151c-178.39,0.483-634.589-159.904-518.032-511.078
							c4.906,34.752,12.942,68.729,28.008,100.341c26.868,56.369,81.68,104.061,144.153,103.582
							c45.538-0.419,87.066-25.611,123.03-53.616c8.632-6.736,17.063-13.7,25.362-20.816c4.9,26.266,16.043,51.829,29.295,70.855
							c33.649,48.31,86.007,79.922,138.384,106.807c52.377,26.885,107.171,51.02,151.621,89.625
							c0.472-73.904,69.212-129.521,138.208-156.009s145.303-36.194,207.538-76.053c14.08-9.018,27.057-19.624,38.906-31.377
							c41.59,12.932,84.869,20.373,128.423,21.457c51.974,1.287,103.972-7.076,154.304-22.264
							c46.748-14.106,90.531,30.054,74.427,76.152C2328.966,1559.502,2277.347,1640.239,2163.686,1702.166z"/>
					</g>
					<g style="opacity:0.6;">
						<path style="fill:#FFFFFF;" d="M2564.127,1418.642c-12.027-74.698-48.427-144.964-106.507-190.595
							c-10.814-8.546-22.42-16.195-34.816-22.842c-9.707-21.787-19.308-43.679-28.909-65.624
							c-68.051-154.248-152.982-288.029-269.618-394.642c-14.507-13.294-29.541-26.113-44.998-38.509
							c-22.104-17.672-49.06-33.023-79.709-45.789c0.316,2.901,0.211,5.803-0.264,8.651c-5.961,35.081-69.844,53.491-142.748,41.147
							c-72.851-12.397-127.133-50.853-121.172-85.934c0.369-2.11,0.949-4.167,1.741-6.172
							c-156.622,5.381-324.217,59.716-434.892,180.308c-108.828,118.535-195.975,263.499-231.478,422.179
							c-2.902,12.66-5.487,25.532-7.86,38.615c-10.603,4.906-20.679,10.498-30.174,16.881c-11.025,7.28-21.312,15.457-30.86,24.53
							c-53.702,50.168-83.719,124.285-89.943,197.822c-16.775-96.115,12.397-211.274,86.567-280.696
							c9.601-9.073,19.887-17.25,30.913-24.583c9.495-6.33,19.519-11.922,30.122-16.828c2.426-13.083,4.959-25.954,7.913-38.615
							c35.502-158.68,122.597-303.643,231.478-422.178c208.267-226.941,618.154-219.24,776.992-92.211
							c15.509,12.397,30.491,25.216,44.998,38.509c116.689,106.613,201.62,240.393,269.618,394.589
							c9.654,21.998,19.202,43.89,28.908,65.677c12.397,6.647,24.002,14.296,34.817,22.842
							C2533.637,1207.474,2572.515,1315.828,2564.127,1418.642z"/>
					</g>
					<g>
						<path style="fill:#000072;" d="M1707.822,2087.987c-0.491,0-0.972,0-1.46-0.002c-109.963-0.64-212.483-64.961-248.911-154.541
							c-108.552-25.686-231.729-59.207-339.128-125.349c-120.493-74.268-202.8-183.042-225.828-298.435
							c-21.948-110.188,14.031-260.239,125.256-333.848c7.312-4.878,15.032-9.424,23.018-13.562c2.012-10.42,4.028-20,6.118-29.055
							c33.662-150.518,115.432-299.834,236.443-431.67c98.572-107.393,248.135-173.323,421.135-185.645
							c153.25-10.923,300.659,24.028,384.636,91.204c131.206,104.954,236.125,249.231,320.759,441.079l6.04,13.77
							c6.65,15.164,13.286,30.295,19.973,45.369c10.945,6.284,21.509,13.435,31.492,21.318
							c92.961,73.022,138.594,212.051,110.93,338.054c-26.88,122.588-112.666,235.732-241.555,318.584
							c-109.753,70.496-234.585,111.245-363.696,149.524C1919.682,2026.893,1814.399,2087.985,1707.822,2087.987z M1760.573,556.08
							c-17.534,0-35.256,0.623-53.11,1.895c-93.94,6.692-269.917,37.944-393.044,172.085
							c-116.016,126.399-194.297,269.033-226.377,412.483c-2.659,11.519-5.176,23.835-7.729,37.793
							c-1.235,6.746-5.671,12.471-11.894,15.352c-9.561,4.424-18.75,9.563-27.31,15.276
							c-95.776,63.381-126.421,194.077-107.226,290.447c20.74,103.931,96.035,202.62,206.577,270.754
							c105.664,65.073,229.683,97.498,337.632,122.783c7.109,1.665,12.852,6.885,15.183,13.804
							c26.577,78.838,116.292,136.467,213.32,137.031c94.631,0.437,188.76-55.273,233.63-138.784
							c2.669-4.963,7.21-8.652,12.612-10.249c129.001-38.101,253.687-78.01,361.089-146.995
							c119.424-76.77,198.677-180.515,223.149-292.124c0-0.002,0-0.005,0-0.005c24.319-110.771-15.083-232.432-95.82-295.852
							c-10.029-7.92-20.703-14.924-31.765-20.854c-4.128-2.214-7.405-5.737-9.309-10.017c-7.69-17.275-15.298-34.624-22.927-52.021
							l-6.021-13.721c-82.944-188.02-180.974-323.118-308.494-425.122C1996.201,586.813,1883.589,556.08,1760.573,556.08z"/>
					</g>
					<g>
						<path style="fill:#000072;" d="M2034.514,1383.821c-41.349,69.413-79.885,132.424-117.405,185.502
							c-78.688,111.301-153.009,178.859-240.255,169.644c-11.37-1.197-21.183-3.471-29.561-6.582
							c-88.024-32.852-19.568-163.481,19.687-206.805l-0.06-0.06c0.06,0,0.12-0.06,0.18-0.06
							c60.797-28.663,129.014-35.784,194.598-50.385C1927.282,1460.475,1994.841,1435.582,2034.514,1383.821z"/>
					</g>
					<g>
						<path style="fill:#FF6EB9;" d="M1917.107,1569.322c-78.683,111.301-153.009,178.86-240.249,169.644
							c-11.375-1.197-21.183-3.471-29.567-6.582c-1.735-7.779-2.513-15.857-2.214-23.756c0.957-28.005,13.105-54.753,29.86-77.193
							c46.561-62.412,131.646-93.349,207.403-75.338C1894.129,1558.91,1905.977,1563.158,1917.107,1569.322z"/>
					</g>
					<g>
						<path style="fill:#000072;" d="M1692.683,1760.907c-5.94,0-11.943-0.313-18.047-0.957c-12.7-1.335-24.372-3.955-34.688-7.783
							c-28.435-10.613-47.019-30.903-53.782-58.689c-8.828-36.277,4.102-79.517,21.948-115.82
							c-14.353,5.461-29.431,9.329-45.71,9.995c-41.948,1.67-79.507-19.036-109.682-35.706
							c-28.877-16.008-57.729-31.98-86.565-47.942l-48.747-26.987c-17.556-9.709-39.419-21.802-52.322-43.811
							c-18.389-31.062-13.335-73.25,13.914-115.664c4.944-7.656,10.21-15.029,15.303-22.161
							c13.65-19.109,26.541-37.158,31.062-57.041c2.583-11.367,13.896-18.501,25.254-15.898
							c11.365,2.585,18.482,13.892,15.899,25.254c-6.401,28.154-22.4,50.554-37.871,72.214c-5.032,7.046-9.788,13.701-14.167,20.483
							c-6.729,10.476-27.642,46.714-13.032,71.392c7.097,12.102,22.663,20.71,36.396,28.308l48.752,26.99
							c28.843,15.967,57.703,31.941,86.563,47.939c26.873,14.846,57.353,31.731,87.522,30.461
							c24.023-0.981,47.104-13.125,71.541-25.984c8.389-4.414,17.063-8.979,25.896-13.135c47.515-22.4,98.86-32.219,148.513-41.714
							c16.653-3.184,33.875-6.477,50.481-10.173c79.509-17.7,130.559-44.231,160.654-83.496c6.804-8.872,19.343-10.891,28.587-4.631
							c9.25,6.27,12.009,18.667,6.289,28.267c-44.387,74.514-81.492,134.81-118.301,186.885
							C1871.096,1670.956,1793.344,1760.897,1692.683,1760.907z M1679.98,1542.75c-25.613,30.066-62.998,98.875-52.808,140.75
							c3.442,14.148,12.18,23.398,27.497,29.116c6.973,2.588,15.191,4.397,24.39,5.364c69.858,7.383,135.896-40.72,220.82-160.84
							c19.558-27.671,39.292-57.861,60.268-91.472c-26.65,12.063-57.754,21.965-93.867,30.002
							c-17.227,3.835-34.763,7.19-51.724,10.432C1766.802,1515.236,1721.616,1523.876,1679.98,1542.75z"/>
					</g>
					<g>
						<path style="fill:#FF2929;" d="M2454.266,1145.182c-42.127,95.264-130.809,172.576-233.074,201.24
							c-136.852,38.297-289.502-4.309-398.649-95.384c-38.656-32.253-72.466-70.132-112.139-101.188
							c-39.613-31.116-87.185-55.71-137.57-55.112c-69.773,0.898-129.851,49.308-175.688,102.026
							c-6.463,7.42-12.746,15.02-19.029,22.679c-35.664,43.682-69.234,89.759-113.814,123.508c-3.052,2.334-6.103,4.548-9.275,6.762
							c-57.326,39.793-141.999,52.599-193.879,5.864c-4.966-4.488-9.454-9.335-13.523-14.601
							c-18.251-23.517-27.466-53.975-28.065-83.954c-0.359-21.602,3.351-42.965,9.813-63.609
							c9.515-6.343,19.568-11.968,30.159-16.875c2.393-13.045,4.966-25.911,7.899-38.596
							c227.988-143.854,405.591-205.488,589.716-224.337c189.81-19.448,387.34,8.557,554.83,99.932
							c38.656,21.063,77.073,45.957,120.756,51.342c19.208,2.394,39.853-0.538,57.805-8.198c7.3,16.695,14.601,33.39,21.961,49.966
							c2.334,5.266,4.608,10.472,6.942,15.678C2431.826,1128.966,2443.435,1136.625,2454.266,1145.182z"/>
					</g>
					<g style="opacity:0.2;">
						<path style="fill:#000072;" d="M1815.39,1005.171c-22.34,1.752-45.006,5.241-64.997,15.365
							c-19.992,10.124-37.139,27.818-41.948,49.704c-5.914,26.916,7.331,54.211,22.623,77.137
							c66.15,99.177,175.748,162.709,289.932,196.971c38.742,11.625,79.698,20.319,119.478,12.991s78.22-33.896,89.157-72.839
							c24.538-87.367-69.605-173.91-135.142-212.938C2011.078,1021.89,1912.338,997.57,1815.39,1005.171z"/>
					</g>
					<g style="opacity:0.2;">
						<path style="fill:#000072;" d="M1308.491,1306.856c-16.631,16.643-34.348,32.777-55.533,43.015s-46.498,14.003-68.37,5.33
							c-38.53-15.279-53.947-65.264-42.444-105.084c11.503-39.82,42.986-70.598,76.005-95.652
							c61.827-46.913,133.581-80.68,209.137-98.419c14.822-3.48,31.994-5.87,43.914,3.601c15.026,11.938,12.542,36.51,1.354,52.103
							c-13.275,18.503-34.704,28.222-49.727,44.925c-11.855,13.181-17.738,28.763-26.492,43.742
							C1373.416,1239.633,1340.464,1274.859,1308.491,1306.856z"/>
					</g>
					<g style="opacity:0.6;">
						<path style="fill:#FFFFFF;" d="M2454.266,1145.182c-6.223,14.062-13.464,27.765-21.602,40.93
							c-4.308-2.752-8.677-5.266-13.224-7.719c-2.334-5.206-4.608-10.412-6.942-15.678c-7.36-16.576-14.661-33.271-21.961-49.966
							c-17.952,7.66-38.596,10.592-57.805,8.198c-43.683-5.385-82.099-30.279-120.756-51.342
							c-167.49-91.375-365.02-119.38-554.83-99.932c-184.126,18.849-361.729,80.484-589.716,224.337
							c-2.932,12.686-5.505,25.552-7.899,38.596c-10.592,4.907-20.645,10.532-30.159,16.875c-3.231,10.352-5.744,20.824-7.42,31.475
							c-1.436-7.899-2.214-15.917-2.393-23.936c-0.359-21.602,3.351-42.965,9.813-63.609c9.515-6.343,19.568-11.968,30.159-16.875
							c2.393-13.045,4.966-25.911,7.899-38.596c227.988-143.854,405.591-205.488,589.716-224.337
							c189.81-19.448,387.34,8.557,554.83,99.932c38.656,21.063,77.073,45.957,120.756,51.342
							c19.208,2.394,39.853-0.538,57.805-8.198c7.3,16.695,14.601,33.39,21.961,49.966c2.334,5.266,4.608,10.472,6.942,15.678
							C2431.826,1128.966,2443.435,1136.625,2454.266,1145.182z"/>
					</g>
					<g>
						<path style="fill:#000072;" d="M1144.782,1406.583c-35.513,0-70.159-10.481-97.744-35.327
							c-29.973-27.019-47.671-68.503-48.56-113.823c-0.371-22.654,3.254-46.292,10.779-70.325c1.44-4.604,4.416-8.577,8.433-11.252
							c7.368-4.912,15.098-9.468,23.076-13.604c2.014-10.427,4.031-20.007,6.118-29.055c1.252-5.425,4.595-10.132,9.302-13.103
							c220.369-139.04,399.458-207.073,598.833-227.48c208.938-21.409,405.044,13.997,567.083,102.397
							c5.862,3.193,11.729,6.479,17.607,9.773c32.197,18.04,62.612,35.081,95.623,39.15c15.427,1.921,32.52-0.508,46.946-6.663
							c10.645-4.536,22.957,0.334,27.605,10.93l4.458,10.168c7.173,16.36,14.329,32.678,21.538,48.936
							c10.942,6.287,21.506,13.435,31.484,21.316c7.556,5.964,10.115,16.289,6.223,25.093
							c-44.8,101.309-139.321,182.935-246.677,213.025c-137.937,38.604-298.052,0.474-417.864-99.502
							c-18.018-15.032-35.039-31.274-51.501-46.982c-20.164-19.238-39.209-37.412-60.132-53.789
							c-43.367-34.065-85.225-50.974-124.312-50.63c-52.075,0.671-105.918,32.559-160.012,94.773
							c-12.129,13.967-24.102,28.904-35.684,43.347c-32.436,40.457-65.974,82.292-110.32,113.088
							C1232.47,1391.073,1187.983,1406.583,1144.782,1406.583z M1047.407,1206.935c-4.731,17.183-6.995,33.882-6.733,49.739
							c0.65,33.14,13.591,64.28,34.617,83.23c44.348,39.954,119.519,25.935,167.727-7.524
							c39.314-27.302,69.502-64.956,101.46-104.822c11.836-14.761,24.075-30.027,36.755-44.629
							c62.332-71.689,126.707-108.457,191.345-109.29c49.046-0.627,99.778,19.478,150.876,59.617
							c22.52,17.629,43.213,37.373,63.223,56.467c15.962,15.229,32.466,30.979,49.404,45.112
							c109.302,91.204,254.704,126.172,379.446,91.267c90.073-25.247,169.978-91.226,212.205-174.189
							c-5.923-3.979-12.021-7.656-18.245-10.994c-4.126-2.214-7.402-5.737-9.304-10.017c-7.119-15.999-14.175-32.058-21.235-48.162
							c-15.972,3.982-32.754,5.078-48.809,3.076c-41.213-5.083-76.721-24.978-111.057-44.216
							c-5.735-3.213-11.455-6.418-17.183-9.539c-154.524-84.302-342.148-118-542.58-97.466
							c-190.254,19.475-362.102,84.331-573.203,216.533c-1.953,8.989-3.87,18.623-5.806,29.207
							c-1.235,6.746-5.669,12.468-11.89,15.349C1061.174,1199.039,1054.133,1202.809,1047.407,1206.935z"/>
					</g>
					<g>
						<path style="fill:#000072;" d="M1867.349,1167.94c0-70.098,44.209-126.918,98.735-126.918
							c54.531,0,98.735,56.819,98.735,126.918c0,70.092-44.203,126.917-98.735,126.917
							C1911.558,1294.858,1867.349,1238.032,1867.349,1167.94"/>
					</g>
					<g>
						<path style="fill:#FFFFFF;" d="M1970.313,1139.254c0-24.798,12.057-44.897,26.928-44.897c14.87,0,26.928,20.099,26.928,44.897
							c0,24.799-12.058,44.897-26.928,44.897C1982.37,1184.151,1970.313,1164.053,1970.313,1139.254"/>
					</g>
					<g style="opacity:0.35;">
						<path style="fill:#FFFFFF;" d="M1898.602,1213.174c-4.513-18.306-1.845-34.702,5.958-36.626
							c7.802-1.924,17.787,11.353,22.301,29.659c4.513,18.306,1.845,34.702-5.958,36.626
							C1913.1,1244.756,1903.115,1231.48,1898.602,1213.174"/>
					</g>
					<g>
						<path style="fill:#000072;" d="M1378.116,1219.443c-35.664,43.682-69.234,89.759-113.814,123.508
							c-27.347-18.012-46.196-56.668-46.196-101.428c0-61.993,36.143-112.199,80.783-112.199
							C1338.024,1129.325,1370.696,1168.041,1378.116,1219.443z"/>
					</g>
					<g>
						<path style="fill:#FFFFFF;" d="M1301.373,1204.883c0-21.06,9.861-38.128,22.033-38.128c12.171,0,22.033,17.068,22.033,38.128
							c0,21.061-9.862,38.135-22.033,38.135C1311.234,1243.018,1301.373,1225.943,1301.373,1204.883"/>
					</g>
					<g style="opacity:0.35;">
						<path style="fill:#FFFFFF;" d="M1237.621,1279.829c-4.513-18.306-1.845-34.702,5.958-36.626
							c7.802-1.924,17.787,11.353,22.301,29.659c4.513,18.306,1.844,34.702-5.958,36.626
							C1252.119,1311.411,1242.135,1298.135,1237.621,1279.829"/>
					</g>
				</g>
				<g>
					<g>
						<path style="fill:#FF2929;" d="M2159.596,1929.395c-54.633,14.637-107.059,37.489-154.966,67.541
							c-12.782,8.024-26.718,19.346-25.851,34.402c0.802,13.859,14.834,23.936,28.639,25.342
							c13.805,1.412,27.364-3.603,40.403-8.342c58.188-21.117,118.542-38.351,180.391-40.792
							c61.85-2.447,125.734,10.897,176.394,46.459c74.662,52.413,112.157,145.565,185.705,199.528
							c110.906,81.37,275.285,54.609,385.431,137.002c66.577,49.804,101.338,131.275,125.202,221.046
							c38.028-62.042,47.141-141.011,24.247-210.084c-22.894-69.073-77.366-126.973-144.925-154.021
							c-55.1-22.057-117.196-24.307-170.195-51.025c-65.919-33.241-107.962-98.867-160.142-151.082
							C2523.658,1919.019,2327.547,1884.39,2159.596,1929.395z"/>
					</g>
					<g style="opacity:0.6;">
						<path style="fill:#FFFFFF;" d="M3105.856,2603.166c14.302-48.829,13.943-101.966-2.094-150.316
							c-22.919-69.054-77.372-126.979-144.931-154.026c-55.112-22.021-117.165-24.295-170.183-50.983
							c-65.943-33.271-107.95-98.854-160.13-151.094c-126.261-126.38-322.414-160.967-490.323-115.969
							c-53.556,14.302-105.078,36.562-152.172,65.823c-4.188-4.129-6.941-9.335-7.24-15.259
							c-0.898-15.08,13.045-26.389,25.851-34.408c47.931-30.039,100.35-52.898,154.984-67.558
							c167.909-44.999,364.062-10.352,490.323,115.969c52.18,52.24,94.187,117.883,160.13,151.094
							c53.018,26.748,115.071,28.962,170.183,51.043c67.558,27.047,122.072,84.972,144.931,154.026
							C3147.085,2467.451,3139.725,2542.489,3105.856,2603.166z"/>
					</g>
					<g>
						<path style="fill:#000072;" d="M3100.949,2632.682c-1.013,0-2.034-0.073-3.054-0.222c-8.354-1.221-15.176-7.3-17.344-15.459
							c-27.927-105.066-64.15-169.7-117.446-209.57c-51.528-38.545-116.338-51.538-184.954-65.295
							c-69.507-13.936-141.379-28.347-200.322-71.589c-38.596-28.32-67.422-66.125-95.298-102.686
							c-28.157-36.926-54.753-71.807-90.049-96.584c-42.71-29.983-100.784-45.149-163.435-42.646
							c-64.712,2.554-126.995,22.476-174.026,39.543l-0.505,0.186c-14.441,5.251-30.808,11.204-49.246,9.312
							c-21.911-2.231-46.033-18.801-47.559-45.112c-1.726-30,26.443-47.683,35.701-53.494
							c49.836-31.262,103.909-54.829,160.723-70.051c186.548-49.985,387.026-2.324,510.72,121.44
							c15.898,15.908,30.891,33.032,45.391,49.592c34.219,39.077,66.538,75.989,109.326,97.566
							c27.031,13.625,57.046,20.439,88.823,27.651c26.338,5.977,53.572,12.158,79.714,22.625
							c73.474,29.417,132.207,91.836,157.112,166.973c24.902,75.129,15.076,160.269-26.287,227.749
							C3115.063,2628.925,3108.215,2632.682,3100.949,2632.682z M2242.212,1986.166c66.252,0,127.756,17.739,174.519,50.569
							c40.645,28.533,70.493,67.681,99.36,105.537c27.263,35.754,53.013,69.526,86.704,94.248
							c51.421,37.725,115.649,50.603,183.652,64.236c70.193,14.075,142.773,28.625,201.936,72.881
							c61.108,45.713,95.081,113.992,116.838,178.43c15.022-46.387,15.356-97.429-0.059-143.931
							c-21.042-63.481-70.664-116.218-132.737-141.069c-23.052-9.229-47.493-14.775-73.372-20.649
							c-32.856-7.458-66.833-15.168-98.481-31.123c-50.127-25.278-86.704-67.051-122.075-107.449
							c-14.05-16.045-28.579-32.637-43.494-47.561c-113.223-113.289-297.686-156.658-469.946-110.508v0.002
							c-52.749,14.131-102.952,36.011-149.214,65.032c-16.106,10.11-16.011,15.105-15.999,15.313c0.066,1.14,4.08,4.99,9.712,5.564
							c8.784,0.903,19.37-2.935,30.54-6.992l0.517-0.188c49.915-18.115,116.243-39.263,186.765-42.046
							C2232.346,1986.263,2237.292,1986.166,2242.212,1986.166z M2159.597,1929.396h0.051H2159.597z"/>
					</g>
				</g>
			</g>
			<g style="opacity:0.2;">
				<path style="fill:#000072;" d="M2418.781,2671.084c-30.518,52.958-89.459,84.732-149.598,95.862
					c-58.643,10.831-123.329,2.992-170.302-33.749c-64.327-50.205-81.262-144.273-60.019-223.021
					c21.243-78.749,73.662-145.17,128.595-205.488c-42.725-42.187-82.219-86.168-121.713-130.15
					c-18.131-20.226-37.16-42.306-39.913-69.294c-0.359-3.292-0.359-6.643-0.179-9.934c1.137-16.037,8.916-29.321,20.106-38.417
					c54.394,96.222,126.62,182.39,212.07,252.582c-25.312,34.407-45.119,77.253-62.771,116.148
					c-17.653,38.896-27.107,82.817-18.61,124.705c8.437,41.828,37.101,80.963,77.552,94.666
					c49.188,16.695,104.839-7.001,140.443-44.76c18.431-19.568,32.613-42.187,44.64-66.242
					C2444.333,2574.503,2442.597,2629.615,2418.781,2671.084z"/>
			</g>
			<g>
				<path style="fill:none;" d="M1529.988,2140.01c-3.471-16.336-10.591-31.356-20.405-44.58"/>
			</g>
			<g style="opacity:0.2;">
				<path style="fill:#26004F;" d="M1758.515,2189.138c-140.802,19.568-263.353-25.372-273.705-100.41
					c-2.394-17.115,1.316-34.348,10.053-50.923c48.508,73.73,209.737,99.872,303.385,74.2
					c73.183-20.106,138.348-67.319,181.552-129.612c7.899,10.831,12.926,22.799,14.721,35.604
					C2004.933,2092.977,1899.256,2169.631,1758.515,2189.138z"/>
			</g>
			<g style="opacity:0.2;">
				<path style="fill:#000072;" d="M1822.067,2834.519c14.997-7.959,30.797-22.644,26.187-38.983
					c-2.643-9.366-11.693-15.819-21.154-18.099c-9.461-2.28-19.374-1.114-29.016,0.2c-61.266,8.344-125.885,21.78-183.133-1.583
					c-8.28-3.379-18.144-7.391-25.56-2.395c-8.277,5.576-7.045,18.249-2.824,27.292c11.787,25.254,38.453,40.98,65.739,46.654
					C1705.097,2858.582,1773.742,2860.168,1822.067,2834.519z"/>
			</g>
			<g style="opacity:0.2;">
				<path style="fill:#000072;" d="M1422.532,2323.354c29.903,2.682,55.412,21.613,82.519,34.522
					c33.912,16.15,72.109,23.197,109.552,20.211c41.419-3.304,80.846-18.467,121.36-27.688
					c40.515-9.221,85.191-11.947,121.595,8.084c19.817,10.905,37.244,34.403,27.751,54.934
					c-6.058,13.103-20.693,19.599-34.279,24.478c-110.863,39.805-236.57,45.749-350.273,13.979
					c-36.458-10.187-76.341-28.389-108.451-48.297C1346.117,2374.941,1368.688,2318.524,1422.532,2323.354z"/>
			</g>
			<g style="opacity:0.2;">
				<path style="fill:#000072;" d="M1760.478,2582.963c-57,6.32-114.244,10.941-171.336,16.413
					c-5.028,0.482-10.51,1.313-15.19,3.218c-40.485-6.262-79.479-19.902-117.427-35.357c-10.861-4.424-23.289-8.993-33.879-3.954
					c-15.248,7.255-15.527,30.691-4.671,43.625c10.856,12.934,28.209,17.994,44.509,22.403
					c36.55,9.887,73.334,19.816,111.055,23.103c11.497,1.002,23.115,1.255,34.69,0.802c52.731,21.377,112.76,24.701,167.352,8.496
					c14.634-4.344,29.349-10.33,39.946-21.318C1859.652,2594.637,1794.785,2579.159,1760.478,2582.963z"/>
			</g>
		</g>
		<g>
			<g>
				<path style="fill:#FFFFFF;" d="M2852.017,931.812c-24.724-40.451-36.914-89.009-31.698-139.81
					c12.66-123.302,122.879-212.996,246.181-200.336c123.302,12.66,212.996,122.879,200.336,246.181
					c-12.66,123.302-122.879,212.996-246.181,200.336c-34.297-3.521-65.979-14.61-93.596-31.41l-103.861,23.292L2852.017,931.812z"
					/>
			</g>
			<g style="opacity:0.5;">
				<g>
					<path style="fill:#FFFFFF;" d="M3062.091,634.606c-115.182-11.826-218.92,65.673-242.409,176.44
						c-0.028-7.912,0.313-15.895,1.139-23.943c12.66-123.302,122.879-212.996,246.181-200.336
						c123.302,12.66,212.996,122.879,200.336,246.181c-0.83,8.083-2.103,16.012-3.747,23.786
						C3263.157,743.458,3177.31,646.436,3062.091,634.606z"/>
				</g>
			</g>
			<g>
				<path style="fill:#000072;" d="M3043.757,1059.113c-8.303,0-16.682-0.425-25.12-1.289
					c-33.733-3.467-65.601-13.579-94.846-30.085l-96.272,21.592c-6.826,1.526-13.943-0.664-18.723-5.762
					c-4.78-5.1-6.509-12.349-4.541-19.058l26.418-90.068c-24.834-44.067-35.193-93.816-29.993-144.456
					c13.752-133.936,133.918-231.682,267.834-217.959c133.933,13.755,231.707,133.904,217.957,267.837
					C3273.586,965.36,3167.282,1059.11,3043.757,1059.113z M2927.058,987.032c3.591,0,7.144,0.981,10.259,2.876
					c26.082,15.864,54.8,25.5,85.354,28.64c112.251,11.519,212.998-70.44,224.529-182.717
					c11.526-112.275-70.439-212.998-182.717-224.529c-112.266-11.504-212.998,70.437-224.529,182.717
					c-4.612,44.924,5.386,89.014,28.906,127.497c2.905,4.751,3.667,10.508,2.1,15.852l-19.39,66.104l71.167-15.962
					C2924.167,987.191,2925.615,987.032,2927.058,987.032z"/>
			</g>
			<g style="opacity:0.3;">
				<path style="fill:#000072;" d="M2850.757,929.657c61.473,51.996,146.16,74.766,230.258,53.835
					c93.266-23.213,161.984-94.233,186.7-180.428c0.591,11.429,0.325,23.046-0.88,34.785
					c-12.66,123.302-122.879,212.995-246.181,200.336c-34.297-3.521-65.979-14.61-93.596-31.409l-103.861,23.293l28.82-98.255
					C2851.583,931.102,2851.183,930.371,2850.757,929.657z"/>
			</g>
			<g>
				<path style="fill:#FF0068;" d="M2971.812,751.903L2971.812,751.903c19.423-19.423,50.913-15.943,70.336,3.48l3.023,3.023
					l3.023-3.023c19.423-19.423,50.913-22.903,70.336-3.48l0,0c19.423,19.423,19.423,50.913,0,70.336l-3.023,3.023l-61.065,61.065
					c-5.121,5.12-13.422,5.12-18.543,0l-61.065-61.065l-3.023-3.023C2952.389,802.816,2952.389,771.326,2971.812,751.903z"/>
			</g>
		</g>
	</g>
</g>
</svg>
